<?xml version="1.0" encoding="UTF-8" standalone="no"?>
<!-- Created with Inkscape (http://www.inkscape.org/) -->

<svg
   xmlns:dc="http://purl.org/dc/elements/1.1/"
   xmlns:cc="http://creativecommons.org/ns#"
   xmlns:rdf="http://www.w3.org/1999/02/22-rdf-syntax-ns#"
   xmlns:svg="http://www.w3.org/2000/svg"
   xmlns="http://www.w3.org/2000/svg"
   xmlns:sodipodi="http://sodipodi.sourceforge.net/DTD/sodipodi-0.dtd"
   xmlns:inkscape="http://www.inkscape.org/namespaces/inkscape"
   width="311.47964"
   height="95.566193"
   id="svg2"
   version="1.1"
   inkscape:version="0.48.0 r9654"
   sodipodi:docname="quirk_string.svg">
  <sodipodi:namedview
     id="base"
     pagecolor="#ffffff"
     bordercolor="#666666"
     borderopacity="1.0"
     inkscape:pageopacity="0.0"
     inkscape:pageshadow="2"
     inkscape:zoom="0.7"
     inkscape:cx="-1.4849516"
     inkscape:cy="43.718608"
     inkscape:document-units="px"
     inkscape:current-layer="layer1"
     showgrid="false"
     inkscape:window-width="954"
     inkscape:window-height="846"
     inkscape:window-x="0"
     inkscape:window-y="0"
     inkscape:window-maximized="0"
     fit-margin-top="10"
     fit-margin-left="10"
     fit-margin-bottom="10"
     fit-margin-right="10" />
  <defs
     id="defs4" />
  <metadata
     id="metadata7">
    <rdf:RDF>
      <cc:Work
         rdf:about="">
        <dc:format>image/svg+xml</dc:format>
        <dc:type
           rdf:resource="http://purl.org/dc/dcmitype/StillImage" />
        <dc:title></dc:title>
      </cc:Work>
    </rdf:RDF>
  </metadata>
  <g
     inkscape:label="Layer 1"
     inkscape:groupmode="layer"
     id="layer1"
     transform="translate(-71.535713,-305.50588)">
    <g
       id="g3350"
       transform="translate(0,8.1570958)">
      <path
         sodipodi:nodetypes="ccccc"
         inkscape:connector-curvature="0"
         id="path3003"
         d="m 105.05586,341.21479 c 24.98163,-9.12507 56.30293,-6.71741 75.79048,12.83303 7.92705,10.03276 17.63592,19.00159 29.75005,23.65511 31.00209,7.06656 65.99569,5.04463 93.07334,-4.75923 9.09513,-2.53513 17.91524,-5.9456 26.65015,-9.50551"
         style="color:#000000;fill:none;stroke:#000000;stroke-width:2;stroke-linecap:butt;stroke-linejoin:miter;stroke-miterlimit:4;stroke-opacity:1;stroke-dasharray:none;stroke-dashoffset:0;marker:none;visibility:visible;display:inline;overflow:visible;enable-background:accumulate" />
      <text
         sodipodi:linespacing="125%"
         id="text2985"
         y="319.50504"
         x="104.28571"
         style="font-size:16px;font-style:normal;font-variant:normal;font-weight:bold;font-stretch:normal;text-align:center;line-height:125%;letter-spacing:0px;word-spacing:0px;text-anchor:middle;fill:#000000;fill-opacity:1;stroke:none;font-family:DejaVu Sans;-inkscape-font-specification:Sans Bold"
         xml:space="preserve"><tspan
           y="319.50504"
           x="104.28571"
           id="tspan2987"
           sodipodi:role="line">quirk</tspan></text>
      <path
         transform="translate(-0.26624298,0)"
         d="m 115.15739,341.21478 c 0,5.57892 -4.52261,10.10153 -10.10153,10.10153 -5.578916,0 -10.101523,-4.52261 -10.101523,-10.10153 0,-5.57892 4.522607,-10.10152 10.101523,-10.10152 5.57892,0 10.10153,4.5226 10.10153,10.10152 z"
         sodipodi:ry="10.101525"
         sodipodi:rx="10.101525"
         sodipodi:cy="341.21478"
         sodipodi:cx="105.05586"
         id="path2995"
         style="color:#000000;fill:#ffffff;stroke:#000000;stroke-width:2;stroke-linecap:butt;stroke-linejoin:miter;stroke-miterlimit:4;stroke-opacity:1;stroke-dasharray:none;stroke-dashoffset:0;marker:none;visibility:visible;display:inline;overflow:visible;enable-background:accumulate"
         sodipodi:type="arc" />
      <text
         xml:space="preserve"
         style="font-size:16px;font-style:normal;font-variant:normal;font-weight:bold;font-stretch:normal;text-align:center;line-height:125%;letter-spacing:0px;word-spacing:0px;text-anchor:middle;fill:#000000;fill-opacity:1;stroke:none;font-family:DejaVu Sans;-inkscape-font-specification:Sans Bold"
         x="331.57004"
         y="342.73856"
         id="text2997"
         sodipodi:linespacing="125%"><tspan
           sodipodi:role="line"
           id="tspan2999"
           x="331.57004"
           y="342.73856">antiquirk</tspan></text>
      <path
         sodipodi:type="arc"
         style="color:#000000;fill:#ffffff;stroke:#000000;stroke-width:2;stroke-linecap:butt;stroke-linejoin:miter;stroke-miterlimit:4;stroke-opacity:1;stroke-dasharray:none;stroke-dashoffset:0;marker:none;visibility:visible;display:inline;overflow:visible;enable-background:accumulate"
         id="path3001"
         sodipodi:cx="105.05586"
         sodipodi:cy="341.21478"
         sodipodi:rx="10.101525"
         sodipodi:ry="10.101525"
         d="m 115.15739,341.21478 c 0,5.57892 -4.52261,10.10153 -10.10153,10.10153 -5.578916,0 -10.101523,-4.52261 -10.101523,-10.10153 0,-5.57892 4.522607,-10.10152 10.101523,-10.10152 5.57892,0 10.10153,4.5226 10.10153,10.10152 z"
         transform="translate(227.01808,23.233509)" />
      <path
         style="font-style:normal;font-variant:normal;font-weight:normal;font-stretch:normal;letter-spacing:normal;word-spacing:normal;text-anchor:start;fill:#000000;stroke:#000000;stroke-width:0;stroke-linecap:butt;stroke-linejoin:miter;stroke-miterlimit:10.43299961;stroke-opacity:1;stroke-dasharray:none;stroke-dashoffset:0"
         inkscape:connector-curvature="0"
         d="m 222.08918,347.43636 0.0211,-0.0842 0.0211,-0.0842 0.0211,-0.0789 0.0211,-0.0737 0.0263,-0.0737 0.0211,-0.0684 0.0263,-0.0632 0.0316,-0.0632 0.0263,-0.0579 0.0369,-0.0526 0.0368,-0.0526 0.0421,-0.0526 0.0474,-0.0421 0.0526,-0.0421 0.0579,-0.0421 0.0632,-0.0368 0.0737,-0.0316 0.0737,-0.0316 0.0842,-0.0316 0.0947,-0.0263 0.0474,-0.0105 0.0526,-0.0105 0.0526,-0.0158 0.0579,-0.0105 0.0579,-0.005 0.0632,-0.0105 0.0632,-0.0105 0.0632,-0.005 0.0684,-0.0105 0.0737,-0.005 0.0737,-0.005 0.0737,-0.005 0.0789,-0.005 0.0842,-0.005 0.0842,-0.005 0.0895,-0.005 0.0895,-0.005 0.0947,0 0.0947,-0.005 0.1,0 0.10527,0 0.10526,-0.005 0.11052,0 0.11579,0 c 0.78946,0 0.99472,0 0.99472,-0.49999 -10e-6,-0.31052 -0.28948,-0.31052 -0.41579,-0.31052 h -7.3683 c -0.18421,0 -0.49999,0 -0.49999,0.52104 0,0.28947 0.23684,0.28947 0.73683,0.28947 0.0526,0 0.54736,0 0.99472,0.0526 0.47367,0.0526 0.71051,0.079 0.71051,0.42105 0,0.10526 -0.0316,0.18421 -0.10526,0.49473 l -3.51573,14.07871 c -0.26315,1.0263 -0.31578,1.23683 -2.38417,1.23683 -0.44736,0 -0.71052,0 -0.71052,0.52104 0,0.28947 0.23684,0.28947 0.71052,0.28947 h 12.13664 c 0.63157,0 0.65789,0 0.81051,-0.44736 l 2.07365,-5.66307 c 0.10527,-0.28947 0.10527,-0.33683 0.10527,-0.36315 0,-0.10526 -0.079,-0.28947 -0.31579,-0.28947 -0.23684,0 -0.26315,0.13158 -0.4421,0.55262 -0.89472,2.41049 -2.04733,5.39992 -6.5841,5.39992 h -2.46312 c -0.36841,0 -0.42104,0 -0.57893,-0.0263 -0.26316,-0.0263 -0.33684,-0.0579 -0.33684,-0.26316 0,-0.079 0,-0.13157 0.13158,-0.60525 z"
         id="path3198-4" />
    </g>
  </g>
</svg>
